<?xml version="1.0" encoding="utf-8"?>
<!-- Generator: Adobe Illustrator 24.1.0, SVG Export Plug-In . SVG Version: 6.00 Build 0)  -->
<svg version="1.1" id="Calque_1" xmlns="http://www.w3.org/2000/svg" xmlns:xlink="http://www.w3.org/1999/xlink" x="0px" y="0px"
	 viewBox="0 0 319 314" style="enable-background:new 0 0 319 314;" xml:space="preserve">
<style type="text/css">
	.st0{fill:none;stroke:#000000;stroke-width:11.3386;stroke-miterlimit:10;}
</style>
<path class="st0" d="M160.16,302.22c-79.74,0.24-144.87-64.5-145.06-144.19C14.92,78.99,79.72,14.27,159.06,13.73
	c79.51-0.54,145.02,63.02,145.75,143.45C305.53,236.94,240.32,301.98,160.16,302.22z"/>
<path d="M178.66,174.29c0,8.65,0.17,17.3-0.09,25.95c-0.1,3.37,0.82,4.39,4.18,4.2c6.94-0.39,9.69,2.46,9.69,9.34
	c0,3.16,0.15,6.32,0.2,9.47c0.1,6.21-2.9,9.19-9.09,9.18c-15.48-0.03-30.95-0.02-46.43-0.03c-7.59,0-10.1-2.71-9.72-10.35
	c0.15-2.99,0.1-5.98,0.1-8.98c0.01-6.13,2.82-9.2,8.83-8.63c4.25,0.4,5.13-1.09,5.03-4.97c-0.23-9.31-0.11-18.63,0.01-27.94
	c0.04-3.48-0.7-5.2-4.85-4.66c-6.3,0.82-9.43-2.38-9.29-8.58c0.09-3.82,0.09-7.65,0.23-11.47c0.18-4.84,2.76-7.38,7.55-7.41
	c11.81-0.06,23.61-0.09,35.42-0.06c5.26,0.01,8.23,3.11,8.25,8.49c0.04,8.82,0.01,17.63,0.01,26.45
	C178.69,174.29,178.68,174.29,178.66,174.29z"/>
<path d="M159.94,126.61c-12.82,0.09-24.57-11.68-24.63-24.68c-0.06-12.86,11.28-24.03,24.45-24.09
	c13.37-0.06,24.97,11.21,24.91,24.2C184.62,115,173.02,126.52,159.94,126.61z"/>
</svg>
