<?xml version="1.0" encoding="utf-8"?>
<!-- Generator: Adobe Illustrator 24.1.0, SVG Export Plug-In . SVG Version: 6.00 Build 0)  -->
<svg version="1.1" id="Calque_1" xmlns="http://www.w3.org/2000/svg" xmlns:xlink="http://www.w3.org/1999/xlink" x="0px" y="0px"
	 viewBox="0 0 225 225" style="enable-background:new 0 0 225 225;" xml:space="preserve">
<style type="text/css">
	.st0{stroke:#000000;stroke-width:11.3386;}
</style>
<path class="st0" d="M4.88,0c0.76,2.55,2.19,5.11,2.2,7.66C7.2,75.44,7.17,143.22,7.17,211c0,1.97,0,3.94,0,6.72
	c2.51,0,4.6,0,6.68,0c67.81,0,135.63-0.01,203.44,0.05c2.57,0,5.13,0.81,7.7,1.24c0,2,0,4,0,6c-74.96,0-149.92,0-225,0
	C0,150,0,75,0,0C1.55,0,3.21,0,4.88,0z"/>
<path class="st0" d="M225,103c-1.77,0.52-4,1.93-5.18,1.31c-1.23-0.63-1.94-3.2-2.02-4.96c-0.25-5.43-0.09-10.87-0.09-17
	c-5.63,0-10.72,0.05-15.81-0.02c-2.88-0.04-6.81,0.73-6.66-3.74c0.14-4.31,4.01-3.53,6.92-3.55c5.48-0.05,10.97-0.19,16.44,0.08
	c2.16,0.11,4.27,1.23,6.4,1.89C225,85.67,225,94.33,225,103z"/>
<path class="st0" d="M95.67,119.92c3.43,2.01,6.84,3.2,9.15,5.5c9.1,9.05,17.86,18.44,26.73,27.71c4.21,4.4,6.25,4.43,10.66-0.02
	c19.6-19.77,39.19-39.55,58.79-59.32c1.05-1.06,2.03-2.51,3.32-2.93c1.31-0.43,3.48-0.35,4.32,0.47c0.82,0.81,0.84,2.94,0.48,4.3
	c-0.3,1.15-1.61,2.06-2.54,3.01c-19.82,20.02-39.64,40.04-59.47,60.04c-7.06,7.12-13.67,7.05-20.58-0.16
	c-8.54-8.9-17.06-17.82-25.61-26.71c-4.28-4.45-6.31-4.46-10.73-0.01c-21.95,22.13-43.89,44.28-65.83,66.41
	c-1.06,1.06-1.98,2.59-3.26,3.01c-1.48,0.49-3.85,0.6-4.78-0.26c-0.84-0.78-0.43-3.11-0.23-4.71c0.08-0.67,1.05-1.23,1.64-1.82
	c22.88-23.08,45.72-46.22,68.74-69.16C88.76,122.99,92.24,121.87,95.67,119.92z"/>
</svg>
