<?xml version="1.0" encoding="utf-8"?>
<!-- Generator: Adobe Illustrator 24.1.0, SVG Export Plug-In . SVG Version: 6.00 Build 0)  -->
<svg version="1.1" id="Calque_1" xmlns="http://www.w3.org/2000/svg" xmlns:xlink="http://www.w3.org/1999/xlink" x="0px" y="0px"
	 viewBox="0 0 123.45 122.48" style="enable-background:new 0 0 123.45 122.48;" xml:space="preserve">
<style type="text/css">
	.st0{fill:#FFFFFF;}
</style>
<path class="st0" d="M52.95,0c3.11,0.98,6.27,1.84,9.32,2.96c28.54,10.51,39.12,45.46,21.24,70.01c-0.81,1.11-2.63,1.97-1.72,3.75
	c0.82,1.59,2.51,1.46,4,1.32c1.98-0.19,3.42,0.5,4.83,1.92c10.43,10.52,20.87,21.03,31.46,31.4c1.94,1.9,1.71,2.87-0.04,4.69
	c-8.14,8.51-8.08,8.56-16.29,0.35c-8.12-8.12-16.2-16.28-24.39-24.34c-2.09-2.06-3.67-4-3.39-7.26c0.22-2.56-0.91-4.63-3.81-2.21
	c-24.88,20.74-67.47,7.35-73.5-28.95C0.6,53.38,0.22,53.17,0,52.95c0-4.33,0-8.66,0-12.99C1.7,21.31,12.31,9.47,28.83,2.07
	c3.58-1.6,7.51-0.91,11.13-2.07C44.29,0,48.62,0,52.95,0z M46.15,14.15c-17.64,0.02-32.1,14.55-32.01,32.17
	c0.09,17.56,14.2,31.64,31.79,31.72C63.88,78.12,78,64.15,78.04,46.27C78.08,28.43,63.88,14.13,46.15,14.15z"/>
</svg>
